# Blender v2.76 (sub 0) OBJ File: ''
# www.blender.org
mtllib test_tree.mtl
v 0.070345 -0.016615 -0.063581
v 0.070345 0.779965 -0.063581
v 0.059562 0.779965 0.089524
v 0.059562 -0.016615 0.089524
v -0.089382 0.779965 0.126580
v -0.089382 -0.016615 0.126580
v -0.170651 0.779965 -0.003623
v -0.170651 -0.016615 -0.003623
v 0.127484 1.450310 0.127826
v 0.046834 1.474622 0.099992
v 0.086423 1.706175 0.173706
v 0.146530 1.673758 0.191629
v -0.071934 -0.016615 -0.121149
v -0.071934 0.779965 -0.121149
v 0.136227 1.641341 0.253498
v 0.038972 1.693793 0.224500
v 0.069753 1.653723 0.273814
v -0.013433 1.465336 0.167469
v 0.029969 1.435284 0.237005
v 0.117061 1.425997 0.212505
v 0.098915 1.115137 0.032123
v 0.003153 1.131563 -0.032749
v 0.007245 1.243070 0.026279
v 0.108438 1.226862 0.064024
v -0.032345 1.011518 -0.047435
v -0.491955 1.372273 -0.376822
v -0.486262 1.389526 -0.376824
v -0.110561 1.105754 0.107060
v -0.029707 1.107624 0.181793
v -0.025752 1.216844 0.210145
v -0.065839 1.236879 0.110438
v 0.088311 1.102981 0.151015
v -0.042431 1.299988 0.657984
v -0.077563 1.292294 0.670004
v 0.123039 1.210653 0.155817
v 0.117961 1.338586 0.095925
v 0.027039 1.358846 0.063136
v -0.039636 1.351107 0.138954
v 0.010077 1.326064 0.218601
v 0.107477 1.318325 0.192008
v 0.079868 0.891689 -0.031680
v -0.052139 0.895741 -0.084292
v 0.069689 1.003413 -0.031345
v -0.144448 0.894194 0.024892
v -0.118245 1.008422 0.053408
v -0.069491 0.889185 0.144985
v -0.049599 0.998405 0.163389
v 0.069145 0.887637 0.110021
v 0.092528 0.995309 0.152627
v 0.571658 1.332591 -0.236423
v 0.570827 1.346742 -0.223947
v -0.503425 1.386433 -0.353278
v -0.503843 1.371844 -0.362866
v 0.567173 1.337216 -0.259825
v -0.496590 1.403460 -0.354974
v -0.486476 1.404317 -0.366620
v -0.095670 1.348548 0.632628
v -0.066126 1.353873 0.623217
v -0.038922 1.326930 0.631015
v -0.099746 1.320421 0.659511
v 0.554379 1.356694 -0.257577
v 0.555576 1.370411 -0.241163
v 0.559768 1.365104 -0.221826
v 0.014040 1.304732 0.519508
v -0.065102 1.145901 0.753873
v -0.292305 1.367945 0.534436
v 0.414581 1.557792 0.662326
v 0.001077 1.640458 0.097111
v 0.457794 1.658182 0.140167
v 0.305103 2.015358 0.809051
v -0.174603 1.915777 0.760483
v -0.258978 1.853762 -0.003357
v 0.248263 2.075842 0.026049
v 0.593281 2.062563 0.344115
v 0.148755 2.092952 0.243745
v -0.595024 1.226490 -0.411684
v -0.664213 1.377924 -0.096761
v -1.041561 1.435786 -0.370587
v -0.299666 1.375367 -0.313550
v -0.700362 1.119954 -0.693120
v -0.377056 1.350071 -0.720000
v -0.438790 1.732419 0.039895
v -0.875090 1.725847 -0.178097
v -0.952775 1.692600 -0.590287
v -0.587679 1.690293 -0.808379
v -0.215864 1.677294 -0.674107
v -0.655489 1.783288 -0.445118
v 0.673487 1.212808 -0.441339
v 0.531883 1.224349 -0.102826
v 0.168347 1.389839 -0.500834
v 0.924472 1.195567 -0.174841
v 0.601553 1.431123 -0.716498
v 1.002609 1.260224 -0.574368
v 0.870517 1.312552 -0.045467
v 0.368975 1.565576 0.010488
v 0.164113 1.755726 -0.410562
v 0.905476 1.601685 -0.652075
v 1.178674 1.518695 -0.416885
v 0.769917 1.674391 -0.235924
vt 0.000000 0.000000
vt 1.000000 0.000000
vt 1.000000 1.000000
vt 0.000000 1.000000
vt 0.500000 1.000000
vt 0.975528 0.654508
vt 0.793893 0.095491
vt 0.206107 0.095492
vt 0.024472 0.654509
vn 0.997500 -0.000000 0.070300
vn 0.241400 -0.000000 0.970400
vn -0.848300 -0.000000 0.529500
vn 0.381200 0.222100 -0.897400
vn 0.375100 0.000000 -0.927000
vn -0.765700 0.000000 -0.643200
vn 0.000000 -1.000000 -0.000000
vn 0.300500 0.823400 0.481400
vn -0.729200 0.318000 -0.605900
vn -0.831900 0.055700 0.552100
vn 0.247700 -0.203600 0.947200
vn 0.989200 -0.109400 0.097500
vn 0.479300 0.305900 -0.822600
vn 0.544600 -0.074000 -0.835400
vn -0.814200 0.089100 0.573800
vn 0.123000 -0.919000 0.374500
vn 0.980700 -0.190400 -0.044200
vn 0.375800 0.223400 -0.899400
vn -0.727800 0.318200 -0.607500
vn -0.728100 0.318200 -0.607200
vn -0.837000 0.058400 0.544000
vn 0.243900 -0.203200 0.948300
vn 0.990300 -0.107300 0.088100
vn 0.285600 0.142900 -0.947600
vn -0.726100 0.318400 -0.609400
vn -0.726300 0.318400 -0.609200
vn -0.844800 0.062700 0.531400
vn 0.148800 -0.295200 0.943800
vn 0.730100 -0.389100 0.561700
vn 0.392100 0.193700 -0.899300
vn -0.807300 -0.244900 0.536900
vn -0.774700 -0.113600 0.622000
vn 0.154500 -0.087400 0.984100
vn 0.664200 -0.747400 -0.014200
vn -0.768000 0.309700 -0.560500
vn -0.764200 0.315900 -0.562300
vn -0.398500 -0.841300 -0.365300
vn -0.671200 0.225600 0.706100
vn 0.652800 0.348600 -0.672500
vn 0.153300 0.966900 0.204200
vn 0.373100 0.224000 -0.900300
vn -0.727500 0.318300 -0.607800
vn -0.865500 0.161800 0.474000
vn -0.000500 0.997600 -0.068700
vn 0.999400 0.032400 -0.015600
vn 0.234200 0.599900 0.765000
vn 0.246000 0.588400 0.770200
vn 0.918200 -0.205000 0.339000
vn -0.988600 -0.119300 -0.091800
vn 0.924600 0.229700 0.303800
vn -0.942100 0.242600 -0.231500
vn 0.366000 0.225700 -0.902800
vn -0.726000 0.318400 -0.609500
vn -0.846000 0.063400 0.529300
vn 0.236900 -0.202600 0.950200
vn 0.992100 -0.103300 0.071000
vn 0.872000 0.443800 -0.206600
vn 0.885600 0.404300 -0.228600
vn -0.388900 -0.050000 -0.919900
vn -0.434600 0.895800 0.093000
vn 0.590400 0.068300 0.804200
vn -0.637500 0.517900 -0.570400
vn -0.374700 -0.865000 0.333600
vn 0.270500 -0.843100 0.464800
vn -0.346800 -0.826800 0.442800
vn 0.582500 -0.808100 0.087900
vn 0.458300 -0.888200 -0.032000
vn 0.424700 -0.547900 0.720700
vn -0.595700 -0.177900 0.783300
vn -0.773800 -0.235500 -0.588000
vn 0.068900 -0.210700 -0.975100
vn 0.895500 -0.420900 -0.144300
vn -0.445400 -0.061100 0.893300
vn -0.895300 0.424600 0.134500
vn -0.511800 -0.071900 -0.856100
vn 0.338400 -0.034800 -0.940400
vn 0.953100 0.083200 0.291100
vn -0.085700 0.986200 0.141700
vn -0.280700 0.959500 -0.024500
vn -0.156700 0.949400 -0.272300
vn 0.115500 0.967200 -0.226100
vn 0.233300 0.972400 -0.002200
vn -0.318400 -0.942500 -0.101100
vn -0.072400 -0.997400 0.003700
vn -0.210000 -0.791900 -0.573400
vn -0.126700 -0.792900 -0.596000
vn 0.084200 -0.986100 -0.143100
vn 0.072600 -0.724500 0.685400
vn -0.732200 -0.502300 0.459900
vn -0.451700 0.208800 -0.867400
vn 0.278500 -0.137100 -0.950600
vn 0.806700 -0.587700 0.062700
vn -0.069000 -0.343900 0.936500
vn -0.912300 -0.108000 0.395100
vn -0.146300 0.566900 -0.810700
vn 0.654800 0.014300 -0.755600
vn 0.807800 -0.228400 0.543400
vn 0.345400 0.510500 0.787400
vn 0.004300 0.912100 0.409800
vn 0.165300 0.979300 -0.117200
vn 0.333800 0.941000 -0.055700
vn 0.503000 0.507900 0.699300
vn -0.190200 -0.781700 -0.594000
vn 0.584400 -0.749600 -0.310700
vn -0.188800 -0.771600 -0.607500
vn 0.088800 -0.778400 -0.621400
vn 0.558900 -0.821600 -0.111700
vn 0.352800 -0.208100 0.912300
vn -0.744600 -0.111600 0.658100
vn -0.319100 -0.693300 -0.646100
vn 0.099900 -0.215300 -0.971400
vn 0.945600 -0.324800 0.015800
vn -0.096100 -0.022200 0.995100
vn -0.980600 0.171700 0.094400
vn 0.164400 -0.249100 -0.954400
vn 0.674000 0.140000 -0.725300
vn 0.848000 0.033300 0.529000
vn -0.218100 0.956900 0.191700
vn -0.499100 0.866400 -0.015200
vn -0.377200 0.893800 -0.242700
vn 0.077700 0.996100 -0.042700
vn 0.039500 0.991400 0.125100
usemtl wood
s 1
f 1/1/1 2/2/1 3/3/1 4/4/1
f 4/1/2 3/2/2 5/3/2 6/4/2
f 6/1/3 5/2/3 7/3/3 8/4/3
f 9/1/4 10/2/4 11/3/4 12/4/4
f 13/1/5 14/2/5 2/3/5 1/4/5
f 8/1/6 7/2/6 14/3/6 13/4/6
f 1/5/7 4/6/7 6/7/7 8/8/7 13/9/7
f 15/5/8 12/6/8 11/7/8 16/8/8 17/9/8
f 10/1/9 18/2/9 16/3/9 11/4/9
f 18/1/10 19/2/10 17/3/10 16/4/10
f 19/1/11 20/2/11 15/3/11 17/4/11
f 20/1/12 9/2/12 12/3/12 15/4/12
f 21/1/13 22/2/13 23/3/13 24/4/13
f 22/1/14 25/2/14 26/3/14 27/4/14
f 28/1/15 29/2/15 30/3/15 31/4/15
f 29/1/16 32/2/16 33/3/16 34/4/16
f 32/1/17 21/2/17 24/3/17 35/4/17
f 36/1/18 37/2/18 10/3/18 9/4/18
f 37/1/19 38/2/19 18/3/20 10/4/20
f 38/1/21 39/2/21 19/3/21 18/4/21
f 39/1/22 40/2/22 20/3/22 19/4/22
f 40/1/23 36/2/23 9/3/23 20/4/23
f 41/1/24 42/2/24 25/3/24 43/4/24
f 42/1/25 44/2/25 45/3/26 25/4/26
f 44/1/27 46/2/27 47/3/27 45/4/27
f 46/1/28 48/2/28 49/3/28 47/4/28
f 49/1/29 48/2/29 50/3/29 51/4/29
f 43/1/30 25/2/30 22/3/30 21/4/30
f 45/1/31 28/2/31 52/3/31 53/4/31
f 45/1/32 47/2/32 29/3/32 28/4/32
f 47/1/33 49/2/33 32/3/33 29/4/33
f 48/1/34 41/2/34 54/3/34 50/4/34
f 27/1/35 52/2/35 55/3/35 56/4/35
f 26/1/36 53/2/36 52/3/36 27/4/36
f 25/1/37 45/2/37 53/3/37 26/4/37
f 28/1/38 31/2/38 55/3/38 52/4/38
f 23/1/39 22/2/39 27/3/39 56/4/39
f 31/1/40 23/2/40 56/3/40 55/4/40
f 24/1/41 23/2/41 37/3/41 36/4/41
f 23/1/42 31/2/42 38/3/19 37/4/19
f 31/1/43 30/2/43 39/3/43 38/4/43
f 40/1/44 39/2/44 57/3/44 58/4/44
f 35/1/45 24/2/45 36/3/45 40/4/45
f 34/1/46 33/2/46 59/3/46 60/4/46
f 60/1/47 59/2/47 58/3/47 57/4/47
f 32/1/48 35/2/48 59/3/48 33/4/48
f 30/1/49 29/2/49 34/3/49 60/4/49
f 35/1/50 40/2/50 58/3/50 59/4/50
f 39/1/51 30/2/51 60/3/51 57/4/51
f 2/1/52 14/2/52 42/3/52 41/4/52
f 14/1/53 7/2/53 44/3/25 42/4/25
f 7/1/54 5/2/54 46/3/54 44/4/54
f 5/1/55 3/2/55 48/3/55 46/4/55
f 3/1/56 2/2/56 41/3/56 48/4/56
f 50/1/57 54/2/57 61/3/57 51/4/57
f 51/1/58 61/2/58 62/3/58 63/4/58
f 41/1/59 43/2/59 61/3/59 54/4/59
f 21/1/60 32/2/60 63/3/60 62/4/60
f 32/1/61 49/2/61 51/3/61 63/4/61
f 43/1/62 21/2/62 62/3/62 61/4/62
usemtl Material.031
f 76/1/63 77/2/63 78/3/63
f 77/1/64 76/2/64 79/3/64
f 76/1/65 78/2/65 80/3/65
f 76/1/66 80/2/66 81/3/66
f 76/1/67 81/2/67 79/3/67
f 77/1/68 79/2/68 82/3/68
f 78/1/69 77/2/69 83/3/69
f 80/1/70 78/2/70 84/3/70
f 81/1/71 80/2/71 85/3/71
f 79/1/72 81/2/72 86/3/72
f 77/1/73 82/2/73 83/3/73
f 78/1/74 83/2/74 84/3/74
f 80/1/75 84/2/75 85/3/75
f 81/1/76 85/2/76 86/3/76
f 79/1/77 86/2/77 82/3/77
f 83/1/78 82/2/78 87/3/78
f 84/1/79 83/2/79 87/3/79
f 85/1/80 84/2/80 87/3/80
f 86/1/81 85/2/81 87/3/81
f 82/1/82 86/2/82 87/3/82
usemtl Material.032
f 88/1/83 89/2/83 90/3/83
f 89/1/84 88/2/84 91/3/84
f 88/1/85 90/2/85 92/3/85
f 88/1/86 92/2/86 93/3/86
f 88/1/87 93/2/87 91/3/87
f 89/1/88 91/2/88 94/3/88
f 90/1/89 89/2/89 95/3/89
f 92/1/90 90/2/90 96/3/90
f 93/1/91 92/2/91 97/3/91
f 91/1/92 93/2/92 98/3/92
f 89/1/93 94/2/93 95/3/93
f 90/1/94 95/2/94 96/3/94
f 92/1/95 96/2/95 97/3/95
f 93/1/96 97/2/96 98/3/96
f 91/1/97 98/2/97 94/3/97
f 95/1/98 94/2/98 99/3/98
f 96/1/99 95/2/99 99/3/99
f 97/1/100 96/2/100 99/3/100
f 98/1/101 97/2/101 99/3/101
f 94/1/102 98/2/102 99/3/102
usemtl Material.030
f 64/1/103 65/2/103 66/3/103
f 65/1/104 64/2/104 67/3/104
f 64/1/105 66/2/105 68/3/105
f 64/1/106 68/2/106 69/3/106
f 64/1/107 69/2/107 67/3/107
f 65/1/108 67/2/108 70/3/108
f 66/1/109 65/2/109 71/3/109
f 68/1/110 66/2/110 72/3/110
f 69/1/111 68/2/111 73/3/111
f 67/1/112 69/2/112 74/3/112
f 65/1/113 70/2/113 71/3/113
f 66/1/114 71/2/114 72/3/114
f 68/1/115 72/2/115 73/3/115
f 69/1/116 73/2/116 74/3/116
f 67/1/117 74/2/117 70/3/117
f 71/1/118 70/2/118 75/3/118
f 72/1/119 71/2/119 75/3/119
f 73/1/120 72/2/120 75/3/120
f 74/1/121 73/2/121 75/3/121
f 70/1/122 74/2/122 75/3/122
