# Blender v2.76 (sub 0) OBJ File: 'untitled.blend'
# www.blender.org
mtllib tree.mtl
o Cylinder
v 0.015674 4.260071 -0.253986
v 0.019167 5.020738 0.022685
v 0.028745 5.020738 0.026171
v 0.199847 4.260072 -0.186952
v 0.033842 5.020738 0.034998
v 0.292234 4.196745 -0.023413
v 0.032072 5.020738 0.045036
v 0.263809 4.260071 0.175798
v 0.024263 5.020738 0.051588
v 0.113670 4.260071 0.301780
v 0.014070 5.020738 0.051588
v -0.087932 4.196745 0.295584
v 0.006262 5.020738 0.045036
v -0.232462 4.260071 0.175798
v 0.004492 5.020738 0.034998
v -0.266496 4.260071 -0.017217
v 0.009589 5.020738 0.026171
v -0.174109 4.196745 -0.193148
v -0.005440 0.984261 -0.939428
v 0.637348 0.984261 -0.705472
v 0.979368 0.790184 -0.113076
v 0.860586 0.790184 0.560572
v 0.336580 0.984261 1.000265
v -0.353069 0.920935 0.994068
v -0.871465 0.790184 0.560572
v -0.990247 0.790184 -0.113076
v -0.653837 0.726857 -0.711668
v -1.162461 0.738851 -0.150182
v -0.862932 1.340317 -0.094124
v -0.569643 1.276991 -0.618026
v -0.766733 0.675525 -0.851516
v -0.002290 1.340317 -0.816288
v -0.006855 0.738851 -1.119851
v -1.023078 0.738851 0.640299
v -0.759126 1.340317 0.494589
v -0.413802 0.675525 1.150053
v -0.306797 1.276991 0.872648
v 0.394483 0.738851 1.156250
v 0.296607 1.340317 0.878845
v 1.009368 0.738851 0.640300
v 0.754545 1.340317 0.494589
v 1.143143 0.675525 -0.156378
v 0.858351 1.340317 -0.094124
v 0.747414 0.738851 -0.845319
v 0.559453 1.340317 -0.611830
v -0.470645 3.486566 -0.047718
v -0.162981 4.310162 0.010068
v -0.106769 4.246835 -0.103204
v -0.309076 3.423239 -0.343475
v 0.015024 4.310162 -0.139296
v 0.010725 3.486566 -0.451635
v -0.412585 3.486566 0.281558
v -0.141511 4.310162 0.131830
v -0.162062 3.423240 0.490282
v -0.052405 4.246835 0.205109
v 0.177903 3.486566 0.496478
v 0.076845 4.310162 0.211305
v 0.434034 3.486566 0.281558
v 0.171559 4.310162 0.131830
v 0.486486 3.423239 -0.053915
v 0.193029 4.310162 0.010068
v 0.324917 3.486566 -0.337279
v 0.131209 4.310162 -0.097008
v 0.005286 2.636403 -0.671042
v 0.010529 3.539113 -0.315061
v 0.242392 3.539113 -0.230669
v 0.463775 2.636403 -0.504165
v 0.365764 3.539113 -0.016983
v 0.702124 2.573076 -0.087815
v 0.322917 3.539113 0.226012
v 0.623007 2.636403 0.398883
v 0.133901 3.539113 0.384616
v 0.249243 2.636403 0.712509
v -0.118452 3.475787 0.378420
v -0.244281 2.573077 0.706312
v -0.301860 3.539113 0.226012
v -0.612436 2.636403 0.398883
v -0.344706 3.539113 -0.016983
v -0.697161 2.636403 -0.081619
v -0.458813 2.573077 -0.510362
v -0.226943 3.475786 -0.236866
v -0.864248 1.872548 -0.105654
v -0.545192 2.688465 -0.046827
v -0.359524 2.625138 -0.384325
v -0.569569 1.809222 -0.631965
v 0.005569 2.688465 -0.508971
v 0.000399 1.872548 -0.831178
v -0.759959 1.872549 0.485799
v -0.478762 2.688465 0.329916
v -0.305499 1.809222 0.865646
v -0.191317 2.625138 0.569622
v 0.300687 1.872549 0.871843
v 0.196847 2.688465 0.575818
v 0.760756 1.872548 0.485799
v 0.489901 2.688465 0.329917
v 0.911923 1.809222 -0.111850
v 0.556331 2.688465 -0.046827
v 0.564756 1.872549 -0.625769
v 0.365054 2.688465 -0.378129
v -0.003388 1.280763 -0.997131
v 0.001149 1.930222 -0.681816
v 0.474390 1.930223 -0.509570
v 0.669916 1.280764 -0.752068
v 0.726197 1.930222 -0.073428
v 1.022565 1.217437 -0.137744
v 0.638746 1.930223 0.422534
v 0.903752 1.280764 0.574081
v 0.252955 1.930223 0.746250
v 0.354870 1.280764 1.034648
v -0.256267 1.866896 0.740054
v -0.367254 1.217437 1.028452
v -0.636448 1.930223 0.422534
v -0.910528 1.280764 0.574081
v -0.723899 1.930222 -0.073428
v -1.034949 1.280763 -0.131548
v -0.682301 1.217437 -0.758265
v -0.477702 1.866896 -0.515766
v -0.018886 0.479314 -0.264436
v -0.018886 1.073543 -0.373037
v 0.231064 1.073543 -0.282063
v 0.161257 0.479314 -0.198870
v 0.364060 1.073543 -0.051708
v 0.257109 0.479314 -0.032850
v 0.317871 1.073543 0.210242
v 0.223820 0.479314 0.155942
v 0.114110 1.073543 0.381218
v 0.076966 0.479314 0.279167
v -0.151881 1.073543 0.381218
v -0.114738 0.479314 0.279166
v -0.355642 1.073543 0.210242
v -0.261591 0.479314 0.155942
v -0.401831 1.073543 -0.051708
v -0.294880 0.479314 -0.032850
v -0.268836 1.073543 -0.282063
v -0.199028 0.479314 -0.198870
v -0.018886 -0.101903 -0.373037
v 0.231064 -0.101903 -0.282063
v 0.364060 -0.101903 -0.051708
v 0.317871 -0.101903 0.210242
v 0.114110 -0.101903 0.381218
v -0.151881 -0.101903 0.381218
v -0.355642 -0.101903 0.210242
v -0.401831 -0.101903 -0.051708
v -0.268836 -0.101903 -0.282063
vt 0.000000 0.000000
vt 1.000000 0.000000
vt 1.000000 1.000000
vt 0.000000 1.000000
vt 0.500000 1.000000
vt 0.821394 0.883022
vt 0.992404 0.586824
vt 0.933013 0.250000
vt 0.671010 0.030154
vt 0.328990 0.030154
vt 0.066987 0.250000
vt 0.007596 0.586824
vt 0.178606 0.883022
vt 0.196465 0.490217
vt 0.226378 0.995616
vt 0.003447 0.995078
vt 0.035796 0.489830
vt 0.228789 -0.004287
vt 0.005858 -0.004824
vn 0.337100 -0.169300 -0.926100
vn 0.853500 -0.169300 -0.492800
vn 0.970600 -0.169300 0.171100
vn 0.633500 -0.169300 0.755000
vn -0.000000 -0.169300 0.985600
vn -0.633500 -0.169300 0.755000
vn -0.970600 -0.169300 0.171100
vn 0.000000 1.000000 0.000000
vn -0.337100 -0.169300 -0.926100
vn -0.853500 -0.169300 -0.492800
vn 0.000000 -1.000000 -0.000000
vn -0.853000 0.172900 -0.492500
vn -0.336900 0.172900 -0.925500
vn -0.970000 0.172900 0.171000
vn -0.633100 0.172900 0.754500
vn -0.000000 0.172900 0.984900
vn 0.633100 0.172900 0.754500
vn 0.970000 0.172900 0.171000
vn 0.853000 0.172900 -0.492500
vn 0.336900 0.172900 -0.925500
vn 0.323800 0.322100 -0.889600
vn 0.873000 0.302200 -0.382700
vn 0.953600 0.297100 0.047700
vn 0.610900 0.311200 0.728000
vn -0.116400 0.296500 0.947900
vn -0.531300 0.301500 0.791700
vn -0.932700 0.321000 0.164500
vn -0.380900 0.316900 -0.868600
vn -0.789800 0.316600 -0.525300
vn 0.041500 -0.999100 0.002400
vn -0.766700 0.431000 -0.475700
vn -0.335600 0.430400 -0.837900
vn -0.889800 0.428500 0.156900
vn -0.551100 0.423000 0.719300
vn -0.045500 0.418700 0.907000
vn 0.584400 0.416300 0.696500
vn 0.907900 0.396000 0.137600
vn 0.802300 0.402500 -0.440800
vn 0.309300 0.426600 -0.849900
vn -0.783800 0.337000 -0.521700
vn -0.378300 0.336700 -0.862300
vn -0.927900 0.335100 0.163600
vn -0.527700 0.328800 0.783200
vn -0.112700 0.325600 0.938800
vn 0.607800 0.325400 0.724400
vn 0.943700 0.312200 0.109300
vn 0.844400 0.317300 -0.431700
vn 0.322400 0.334200 -0.885700
vn 0.320900 0.345800 -0.881700
vn 0.832500 0.330400 -0.444700
vn 0.936600 0.326000 0.128300
vn 0.604700 0.339000 0.720700
vn -0.073500 0.340900 0.937200
vn -0.553400 0.344100 0.758500
vn -0.923000 0.348700 0.162700
vn -0.357900 0.349000 -0.866100
vn -0.790600 0.350000 -0.502400
vn -0.795700 0.350700 -0.493900
vn -0.348600 0.349600 -0.869600
vn -0.922800 0.349100 0.162700
vn -0.566400 0.344600 0.748700
vn -0.055100 0.340800 0.938500
vn 0.604800 0.338500 0.720800
vn 0.919000 0.349400 0.182500
vn 0.801200 0.351700 -0.484100
vn 0.320900 0.346100 -0.881600
vn 0.311400 0.413300 -0.855700
vn 0.807700 0.391000 -0.441200
vn 0.912900 0.384900 0.135700
vn 0.588100 0.403500 0.700900
vn -0.050900 0.405600 0.912600
vn -0.551300 0.409600 0.726800
vn -0.896000 0.415000 0.158000
vn -0.340400 0.416800 -0.842900
vn -0.770800 0.417400 -0.481200
vn 0.182400 -0.862800 0.471500
vn 0.434600 -0.856700 0.277800
vn 0.451100 -0.888900 -0.079500
vn 0.033800 -0.816400 -0.576500
vn 0.332600 -0.824000 -0.458600
vn -0.304900 -0.880400 -0.363300
vn -0.650200 -0.758200 0.048500
vn -0.618900 -0.766100 0.173400
vn -0.143900 -0.907200 0.395400
vn -0.129500 -0.925500 0.355900
vn -0.535900 -0.819600 0.202800
vn -0.587300 -0.809300 -0.008200
vn -0.269100 -0.908100 -0.320700
vn 0.198400 -0.887000 -0.417000
vn 0.115600 -0.885800 -0.449500
vn 0.398700 -0.914400 -0.070300
vn 0.303300 -0.907700 0.290100
vn 0.229600 -0.909100 0.347700
vn 0.213700 -0.937900 0.273300
vn 0.232200 -0.937700 0.258600
vn 0.335600 -0.940100 -0.059200
vn 0.120800 -0.925500 -0.359000
vn 0.137900 -0.925700 -0.352300
vn -0.226300 -0.936000 -0.269700
vn -0.512900 -0.858100 -0.023500
vn -0.461800 -0.865900 0.192000
vn -0.110700 -0.946200 0.304100
vn -0.130200 -0.924700 0.357700
vn -0.440400 -0.870500 0.219600
vn -0.497700 -0.865400 -0.058500
vn -0.266000 -0.910400 -0.317000
vn 0.107200 -0.903800 -0.414400
vn 0.183900 -0.904700 -0.384400
vn 0.392700 -0.917000 -0.069200
vn 0.223200 -0.920100 0.321800
vn 0.279900 -0.919300 0.276500
vn 0.243400 -0.939800 0.240100
vn 0.193800 -0.940200 0.280100
vn 0.338100 -0.939200 -0.059600
vn 0.157200 -0.930900 -0.329700
vn 0.092200 -0.930300 -0.355000
vn -0.228200 -0.934800 -0.272000
vn -0.498900 -0.865600 -0.043200
vn -0.442200 -0.873000 0.205700
vn -0.113300 -0.943500 0.311400
vn -0.281700 -0.567300 0.773800
vn -0.696600 -0.665800 0.267300
vn -0.464800 -0.884400 -0.041800
vn -0.511600 -0.723900 -0.462700
vn 0.052300 -0.535900 -0.842700
vn 0.463500 -0.730300 -0.501900
vn 0.295600 -0.953900 -0.052100
vn 0.366300 -0.744100 0.558700
vn 0.211800 -0.954000 0.212200
usemtl Bark
s 1
f 118/1/1 119/2/1 120/3/1 121/4/1
f 121/1/2 120/2/2 122/3/2 123/4/2
f 123/1/3 122/2/3 124/3/3 125/4/3
f 125/1/4 124/2/4 126/3/4 127/4/4
f 127/1/5 126/2/5 128/3/5 129/4/5
f 129/1/6 128/2/6 130/3/6 131/4/6
f 131/1/7 130/2/7 132/3/7 133/4/7
f 120/5/8 119/6/8 134/7/8 132/8/8 130/9/8 128/10/8 126/11/8 124/12/8 122/13/8
f 135/14/9 134/15/9 119/16/9 118/17/9
f 133/1/10 132/2/10 134/3/10 135/4/10
f 136/5/11 137/6/11 138/7/11 139/8/11 140/9/11 141/10/11 142/11/11 143/12/11 144/13/11
f 143/1/12 133/2/12 135/3/12 144/4/12
f 144/18/13 135/14/13 118/17/13 136/19/13
f 142/1/14 131/2/14 133/3/14 143/4/14
f 141/1/15 129/2/15 131/3/15 142/4/15
f 140/1/16 127/2/16 129/3/16 141/4/16
f 139/1/17 125/2/17 127/3/17 140/4/17
f 138/1/18 123/2/18 125/3/18 139/4/18
f 137/1/19 121/2/19 123/3/19 138/4/19
f 136/1/20 118/2/20 121/3/20 137/4/20
usemtl Leaves
f 1/1/21 2/2/21 3/3/21 4/4/21
f 4/1/22 3/2/22 5/3/22 6/4/22
f 6/1/23 5/2/23 7/3/23 8/4/23
f 8/1/24 7/2/24 9/3/24 10/4/24
f 10/1/25 9/2/25 11/3/25 12/4/25
f 12/1/26 11/2/26 13/3/26 14/4/26
f 14/1/27 13/2/27 15/3/27 16/4/27
f 3/5/8 2/6/8 17/7/8 15/8/8 13/9/8 11/10/8 9/11/8 7/12/8 5/13/8
f 18/1/28 17/2/28 2/3/28 1/4/28
f 16/1/29 15/2/29 17/3/29 18/4/29
f 19/5/30 20/6/30 21/7/30 22/8/30 23/9/30 24/10/30 25/11/30 26/12/30 27/13/30
f 28/1/31 29/2/31 30/3/31 31/4/31
f 31/1/32 30/2/32 32/3/32 33/4/32
f 34/1/33 35/2/33 29/3/33 28/4/33
f 36/1/34 37/2/34 35/3/34 34/4/34
f 38/1/35 39/2/35 37/3/35 36/4/35
f 40/1/36 41/2/36 39/3/36 38/4/36
f 42/1/37 43/2/37 41/3/37 40/4/37
f 44/1/38 45/2/38 43/3/38 42/4/38
f 33/1/39 32/2/39 45/3/39 44/4/39
f 46/1/40 47/2/40 48/3/40 49/4/40
f 49/1/41 48/2/41 50/3/41 51/4/41
f 52/1/42 53/2/42 47/3/42 46/4/42
f 54/1/43 55/2/43 53/3/43 52/4/43
f 56/1/44 57/2/44 55/3/44 54/4/44
f 58/1/45 59/2/45 57/3/45 56/4/45
f 60/1/46 61/2/46 59/3/46 58/4/46
f 62/1/47 63/2/47 61/3/47 60/4/47
f 51/1/48 50/2/48 63/3/48 62/4/48
f 64/1/49 65/2/49 66/3/49 67/4/49
f 67/1/50 66/2/50 68/3/50 69/4/50
f 69/1/51 68/2/51 70/3/51 71/4/51
f 71/1/52 70/2/52 72/3/52 73/4/52
f 73/1/53 72/2/53 74/3/53 75/4/53
f 75/1/54 74/2/54 76/3/54 77/4/54
f 77/1/55 76/2/55 78/3/55 79/4/55
f 80/1/56 81/2/56 65/3/56 64/4/56
f 79/1/57 78/2/57 81/3/57 80/4/57
f 82/1/58 83/2/58 84/3/58 85/4/58
f 85/1/59 84/2/59 86/3/59 87/4/59
f 88/1/60 89/2/60 83/3/60 82/4/60
f 90/1/61 91/2/61 89/3/61 88/4/61
f 92/1/62 93/2/62 91/3/62 90/4/62
f 94/1/63 95/2/63 93/3/63 92/4/63
f 96/1/64 97/2/64 95/3/64 94/4/64
f 98/1/65 99/2/65 97/3/65 96/4/65
f 87/1/66 86/2/66 99/3/66 98/4/66
f 100/1/67 101/2/67 102/3/67 103/4/67
f 103/1/68 102/2/68 104/3/68 105/4/68
f 105/1/69 104/2/69 106/3/69 107/4/69
f 107/1/70 106/2/70 108/3/70 109/4/70
f 109/1/71 108/2/71 110/3/71 111/4/71
f 111/1/72 110/2/72 112/3/72 113/4/72
f 113/1/73 112/2/73 114/3/73 115/4/73
f 116/1/74 117/2/74 101/3/74 100/4/74
f 115/1/75 114/2/75 117/3/75 116/4/75
f 47/1/76 16/2/76 18/3/76 48/4/76
f 48/1/77 18/2/77 1/3/77 50/4/77
f 53/1/78 14/2/78 16/3/78 47/4/78
f 55/1/79 12/2/79 14/3/79 53/4/79
f 57/1/80 10/2/80 12/3/80 55/4/80
f 59/1/81 8/2/81 10/3/81 57/4/81
f 61/1/82 6/2/82 8/3/82 59/4/82
f 63/1/83 4/2/83 6/3/83 61/4/83
f 50/1/84 1/2/84 4/3/84 63/4/84
f 65/1/85 51/2/85 62/3/85 66/4/85
f 66/1/86 62/2/86 60/3/86 68/4/86
f 68/1/87 60/2/87 58/3/87 70/4/87
f 70/1/88 58/2/88 56/3/88 72/4/88
f 72/1/89 56/2/89 54/3/89 74/4/89
f 74/1/90 54/2/90 52/3/90 76/4/90
f 76/1/91 52/2/91 46/3/91 78/4/91
f 81/1/92 49/2/92 51/3/92 65/4/92
f 78/1/93 46/2/93 49/3/93 81/4/93
f 83/1/94 79/2/94 80/3/94 84/4/94
f 84/1/95 80/2/95 64/3/95 86/4/95
f 89/1/96 77/2/96 79/3/96 83/4/96
f 91/1/97 75/2/97 77/3/97 89/4/97
f 93/1/98 73/2/98 75/3/98 91/4/98
f 95/1/99 71/2/99 73/3/99 93/4/99
f 97/1/100 69/2/100 71/3/100 95/4/100
f 99/1/101 67/2/101 69/3/101 97/4/101
f 86/1/102 64/2/102 67/3/102 99/4/102
f 101/1/103 87/2/103 98/3/103 102/4/103
f 102/1/104 98/2/104 96/3/104 104/4/104
f 104/1/105 96/2/105 94/3/105 106/4/105
f 106/1/106 94/2/106 92/3/106 108/4/106
f 108/1/107 92/2/107 90/3/107 110/4/107
f 110/1/108 90/2/108 88/3/108 112/4/108
f 112/1/109 88/2/109 82/3/109 114/4/109
f 117/1/110 85/2/110 87/3/110 101/4/110
f 114/1/111 82/2/111 85/3/111 117/4/111
f 29/1/112 115/2/112 116/3/112 30/4/112
f 30/1/113 116/2/113 100/3/113 32/4/113
f 35/1/114 113/2/114 115/3/114 29/4/114
f 37/1/115 111/2/115 113/3/115 35/4/115
f 39/1/116 109/2/116 111/3/116 37/4/116
f 41/1/117 107/2/117 109/3/117 39/4/117
f 43/1/118 105/2/118 107/3/118 41/4/118
f 45/1/119 103/2/119 105/3/119 43/4/119
f 32/1/120 100/2/120 103/3/120 45/4/120
f 19/1/121 33/2/121 44/3/121 20/4/121
f 20/1/122 44/2/122 42/3/122 21/4/122
f 21/1/123 42/2/123 40/3/123 22/4/123
f 22/1/124 40/2/124 38/3/124 23/4/124
f 23/1/125 38/2/125 36/3/125 24/4/125
f 24/1/126 36/2/126 34/3/126 25/4/126
f 25/1/127 34/2/127 28/3/127 26/4/127
f 27/1/128 31/2/128 33/3/128 19/4/128
f 26/1/129 28/2/129 31/3/129 27/4/129
